<svg xmlns="http://www.w3.org/2000/svg" xmlns:xlink="http://www.w3.org/1999/xlink" width="500" zoomAndPan="magnify" viewBox="0 0 375 374.999991" height="500" preserveAspectRatio="xMidYMid meet" version="1.0"><defs><g/><clipPath id="3069c32bed"><path d="M 54.027344 65 L 336 65 L 336 328 L 54.027344 328 Z M 54.027344 65 " clip-rule="nonzero"/></clipPath><clipPath id="363be095ca"><path d="M 213 46 L 314 46 L 314 128 L 213 128 Z M 213 46 " clip-rule="nonzero"/></clipPath><clipPath id="b7bf9b8cad"><path d="M 215.183594 41.5625 L 315.902344 51.9375 L 308.0625 128.03125 L 207.347656 117.660156 Z M 215.183594 41.5625 " clip-rule="nonzero"/></clipPath><clipPath id="bbea9fff22"><path d="M 215.183594 41.5625 L 315.902344 51.9375 L 308.0625 128.03125 L 207.347656 117.660156 Z M 215.183594 41.5625 " clip-rule="nonzero"/></clipPath><clipPath id="d2dca7ef2d"><path d="M 213 51 L 314 51 L 314 132 L 213 132 Z M 213 51 " clip-rule="nonzero"/></clipPath><clipPath id="4f38cc6c1b"><path d="M 215.183594 46.042969 L 315.902344 56.417969 L 308.0625 132.515625 L 207.347656 122.140625 Z M 215.183594 46.042969 " clip-rule="nonzero"/></clipPath><clipPath id="46f0f26e1d"><path d="M 215.183594 46.042969 L 315.902344 56.417969 L 308.0625 132.515625 L 207.347656 122.140625 Z M 215.183594 46.042969 " clip-rule="nonzero"/></clipPath><clipPath id="d38f246a2e"><path d="M 215 50 L 312 50 L 312 128 L 215 128 Z M 215 50 " clip-rule="nonzero"/></clipPath><clipPath id="7919ad8b50"><path d="M 217.714844 46.042969 L 313.210938 55.878906 L 305.757812 128.246094 L 210.261719 118.410156 Z M 217.714844 46.042969 " clip-rule="nonzero"/></clipPath><clipPath id="49316d8484"><path d="M 217.714844 46.042969 L 313.210938 55.878906 L 305.757812 128.246094 L 210.261719 118.410156 Z M 217.714844 46.042969 " clip-rule="nonzero"/></clipPath><clipPath id="6010978c5d"><path d="M 217.714844 46.042969 L 313.210938 55.878906 L 305.757812 128.246094 L 210.261719 118.410156 Z M 217.714844 46.042969 " clip-rule="nonzero"/></clipPath></defs><g clip-path="url(#3069c32bed)"><path fill="#a98fdb" d="M 332.351562 229.0625 L 326.980469 245.980469 C 312.746094 279.246094 288.75 302.828125 254.992188 316.734375 C 221.042969 330.578125 184.90625 330.832031 146.582031 317.503906 C 110.421875 303.042969 84.296875 279.804688 68.203125 247.792969 C 63.066406 237.457031 59.382812 226.65625 57.152344 215.390625 L 55.027344 198.324219 C 54.378906 186.78125 55.4375 175.144531 58.203125 163.425781 C 67.789062 127.71875 88.332031 101.019531 119.832031 83.324219 C 151.332031 65.632812 186.605469 60.980469 225.65625 69.371094 C 264.269531 79.574219 293.613281 99.699219 313.683594 129.738281 C 333.753906 159.777344 339.980469 192.886719 332.351562 229.0625 " fill-opacity="1" fill-rule="nonzero"/></g><g clip-path="url(#363be095ca)"><g clip-path="url(#b7bf9b8cad)"><g clip-path="url(#bbea9fff22)"><path fill="#ffffff" d="M 223.835938 118.160156 C 225.589844 117.992188 229.09375 117.617188 232.628906 117.402344 C 236.164062 117.1875 239.734375 117.125 243.335938 117.222656 C 246.941406 117.324219 250.578125 117.570312 253.304688 117.867188 C 256.027344 118.164062 257.824219 118.402344 259.570312 118.664062 C 261.3125 118.925781 263 119.210938 264.628906 119.519531 C 266.261719 119.824219 267.839844 120.148438 269.757812 120.570312 C 271.679688 120.988281 273.980469 121.523438 276.351562 122.113281 C 278.722656 122.699219 281.164062 123.339844 283.667969 124.046875 C 286.175781 124.75 288.746094 125.515625 290.742188 126.074219 C 292.734375 126.632812 293.636719 126.808594 294.46875 126.933594 C 295.296875 127.058594 296.132812 127.121094 297.328125 127 C 298.519531 126.875 300.941406 125.585938 301.984375 121.347656 C 303.03125 117.109375 303.394531 112.851562 304.324219 107.761719 C 305.253906 102.671875 306.660156 96.746094 308.589844 90.011719 C 310.519531 83.277344 313.011719 75.757812 313.554688 68.832031 C 314.101562 61.910156 310.546875 61.15625 309.359375 61.6875 C 308.171875 62.21875 307.617188 62.679688 307.132812 63.160156 C 306.644531 63.644531 306.144531 64.195312 305.371094 65.085938 C 304.601562 65.976562 303.230469 67.589844 301.375 69.789062 C 299.515625 71.988281 297.164062 74.777344 294.332031 78.175781 C 291.5 81.574219 288.144531 85.546875 286.195312 87.878906 C 284.242188 90.210938 284.058594 90.40625 284.003906 90.464844 C 283.945312 90.527344 284.074219 90.46875 284.480469 90.390625 C 284.890625 90.308594 285.582031 90.164062 285.808594 90.226562 C 286.035156 90.289062 285.96875 90.214844 285.632812 89.828125 C 285.296875 89.441406 284.800781 88.75 284.203125 87.773438 C 283.605469 86.800781 282.929688 85.558594 282.347656 84.382812 C 281.761719 83.210938 281.078125 81.636719 280.015625 79.046875 C 278.957031 76.460938 277.570312 72.882812 275.851562 68.335938 C 274.128906 63.789062 272.070312 58.277344 270.785156 54.839844 C 269.5 51.402344 269.203125 50.777344 268.832031 50.15625 C 268.464844 49.53125 267.96875 48.882812 267.210938 48.214844 C 266.457031 47.546875 265.292969 46.953125 264.230469 46.726562 C 263.167969 46.5 260.96875 46.859375 259.722656 47.6875 C 258.476562 48.519531 257.820312 49.300781 257.363281 50.027344 C 256.90625 50.753906 256.535156 51.480469 253.21875 59.597656 C 249.90625 67.714844 244.085938 83.183594 243.875 83.695312 C 243.664062 84.207031 243.476562 84.632812 243.34375 84.90625 C 243.210938 85.179688 243.167969 85.265625 243.316406 85.09375 C 243.46875 84.917969 248.382812 83.402344 248.261719 83.238281 C 248.140625 83.078125 246.328125 81.773438 243.527344 79.480469 C 240.730469 77.1875 237.035156 73.972656 232.480469 69.867188 C 227.925781 65.761719 222.480469 60.761719 221.839844 60.273438 C 221.195312 59.789062 220.476562 59.402344 219.445312 59.140625 C 218.414062 58.875 217.050781 58.964844 215.792969 59.601562 C 214.535156 60.242188 212.898438 63.738281 213.242188 66.984375 C 213.585938 70.234375 214.394531 74.121094 215.636719 78.726562 C 216.875 83.332031 218.558594 88.679688 220.242188 92.984375 C 221.925781 97.285156 227.21875 95.757812 226.371094 92.820312 C 226.371094 92.820312 225.503906 86.746094 224.460938 81.71875 C 223.417969 76.695312 222.730469 72.550781 222.421875 69.335938 C 222.113281 66.121094 222.144531 63.890625 221.019531 65.800781 C 219.890625 67.710938 218.820312 68.085938 217.917969 68.058594 C 217.015625 68.03125 216.507812 67.851562 216.296875 67.738281 C 216.085938 67.628906 215.894531 67.46875 220.726562 72.558594 C 225.558594 77.652344 229.683594 81.816406 233.089844 85.066406 C 236.5 88.316406 239.230469 90.679688 241.511719 92.289062 C 243.789062 93.898438 246.507812 94.824219 249.457031 93.546875 C 252.410156 92.265625 252.882812 91.605469 253.261719 90.964844 C 253.636719 90.328125 253.976562 89.664062 254.308594 88.945312 C 254.636719 88.222656 255.007812 87.332031 260.683594 71.796875 C 266.355469 56.265625 266.453125 56.003906 266.535156 55.796875 C 266.617188 55.59375 266.574219 55.636719 266.1875 55.992188 C 265.804688 56.351562 264.683594 56.941406 263.308594 57.027344 C 261.933594 57.117188 261.492188 56.960938 260.855469 56.570312 C 260.21875 56.179688 259.953125 55.898438 259.894531 55.796875 C 259.832031 55.699219 259.882812 55.761719 259.984375 55.933594 C 260.085938 56.101562 262.785156 62.089844 265.082031 67.164062 C 267.382812 72.238281 269.289062 76.382812 270.785156 79.609375 C 272.28125 82.835938 273.390625 85.152344 274.144531 86.589844 C 274.898438 88.027344 275.777344 89.558594 276.632812 90.910156 C 277.484375 92.265625 278.3125 93.425781 279.15625 94.414062 C 280 95.402344 280.921875 96.242188 281.933594 96.847656 C 282.949219 97.453125 283.941406 97.773438 285.066406 97.652344 C 286.195312 97.53125 287.082031 97.226562 287.78125 96.816406 C 288.476562 96.40625 289.058594 95.933594 289.589844 95.410156 C 290.117188 94.886719 293.992188 90.679688 297.335938 87.054688 C 300.679688 83.429688 303.515625 80.402344 305.816406 77.945312 C 308.121094 75.484375 309.910156 73.625 311.171875 72.339844 C 312.429688 71.058594 312.917969 70.5625 313.25 70.25 C 313.585938 69.941406 313.757812 69.804688 313.582031 69.925781 C 313.40625 70.042969 312.148438 70.472656 309.621094 67.347656 C 307.09375 64.222656 303.628906 72.15625 300.746094 79.527344 C 297.859375 86.898438 295.632812 93.644531 294.109375 99.78125 C 292.589844 105.917969 291.742188 111.457031 291.554688 116.234375 C 291.363281 121.011719 293.304688 116.808594 294.796875 116.164062 C 296.285156 115.519531 296.527344 115.519531 296.3125 115.5 C 296.09375 115.484375 295.589844 115.414062 295.003906 115.320312 C 294.417969 115.222656 291.785156 114.546875 289.089844 113.894531 C 286.390625 113.246094 283.757812 112.65625 281.1875 112.128906 C 278.617188 111.601562 276.109375 111.144531 273.675781 110.757812 C 271.238281 110.371094 269.566406 110.128906 267.828125 109.917969 C 266.089844 109.707031 264.308594 109.519531 262.476562 109.363281 C 260.648438 109.207031 258.777344 109.070312 256.820312 108.957031 C 254.867188 108.84375 250.949219 108.785156 247.070312 108.882812 C 243.191406 108.984375 239.371094 109.261719 235.609375 109.707031 C 231.84375 110.152344 228.144531 110.777344 226.300781 111.226562 C 222.683594 112.007812 225.613281 117.828125 223.835938 118.160156 Z M 223.835938 118.160156 " fill-opacity="1" fill-rule="nonzero"/></g></g></g><g clip-path="url(#d2dca7ef2d)"><g clip-path="url(#4f38cc6c1b)"><g clip-path="url(#46f0f26e1d)"><path fill="#ffffff" d="M 223.835938 122.644531 C 225.589844 122.472656 229.09375 122.101562 232.628906 121.882812 C 236.164062 121.667969 239.734375 121.609375 243.335938 121.707031 C 246.941406 121.804688 250.578125 122.054688 253.304688 122.351562 C 256.027344 122.648438 257.824219 122.882812 259.570312 123.144531 C 261.3125 123.40625 263 123.695312 264.628906 124 C 266.261719 124.304688 267.839844 124.632812 269.757812 125.050781 C 271.679688 125.472656 273.980469 126.007812 276.351562 126.59375 C 278.722656 127.183594 281.164062 127.824219 283.667969 128.527344 C 286.175781 129.230469 288.746094 129.996094 290.742188 130.554688 C 292.734375 131.113281 293.636719 131.292969 294.46875 131.417969 C 295.296875 131.539062 296.132812 131.605469 297.328125 131.480469 C 298.519531 131.359375 300.941406 130.070312 301.984375 125.828125 C 303.03125 121.589844 303.394531 117.335938 304.324219 112.242188 C 305.253906 107.152344 306.660156 101.230469 308.589844 94.496094 C 310.519531 87.761719 313.011719 80.238281 313.554688 73.316406 C 314.101562 66.390625 310.546875 65.636719 309.359375 66.167969 C 308.171875 66.703125 307.617188 67.160156 307.132812 67.644531 C 306.644531 68.125 306.144531 68.679688 305.371094 69.566406 C 304.601562 70.457031 303.230469 72.070312 301.375 74.269531 C 299.515625 76.46875 297.164062 79.261719 294.332031 82.660156 C 291.5 86.054688 288.144531 90.027344 286.195312 92.359375 C 284.242188 94.691406 284.058594 94.886719 284.003906 94.949219 C 283.945312 95.011719 284.074219 94.953125 284.480469 94.871094 C 284.890625 94.792969 285.582031 94.648438 285.808594 94.710938 C 286.035156 94.773438 285.96875 94.699219 285.632812 94.3125 C 285.296875 93.925781 284.800781 93.230469 284.203125 92.257812 C 283.605469 91.28125 282.929688 90.042969 282.347656 88.867188 C 281.761719 87.691406 281.078125 86.117188 280.015625 83.53125 C 278.957031 80.945312 277.570312 77.367188 275.851562 72.820312 C 274.128906 68.273438 272.070312 62.761719 270.785156 59.320312 C 269.5 55.882812 269.203125 55.261719 268.832031 54.636719 C 268.464844 54.011719 267.96875 53.367188 267.210938 52.699219 C 266.457031 52.027344 265.292969 51.433594 264.230469 51.210938 C 263.167969 50.984375 260.96875 51.339844 259.722656 52.171875 C 258.476562 53.003906 257.820312 53.785156 257.363281 54.507812 C 256.90625 55.234375 256.535156 55.964844 253.21875 64.082031 C 249.90625 72.195312 244.085938 87.667969 243.875 88.179688 C 243.664062 88.6875 243.476562 89.117188 243.34375 89.390625 C 243.210938 89.660156 243.167969 89.746094 243.316406 89.574219 C 243.46875 89.402344 248.382812 87.882812 248.261719 87.722656 C 248.140625 87.558594 246.328125 86.253906 243.527344 83.960938 C 240.730469 81.667969 237.035156 78.453125 232.480469 74.347656 C 227.925781 70.242188 222.480469 65.246094 221.839844 64.757812 C 221.195312 64.269531 220.476562 63.886719 219.445312 63.621094 C 218.414062 63.359375 217.050781 63.449219 215.792969 64.085938 C 214.535156 64.722656 212.898438 68.222656 213.242188 71.46875 C 213.585938 74.714844 214.394531 78.605469 215.636719 83.210938 C 216.875 87.816406 218.558594 93.164062 220.242188 97.464844 C 221.925781 101.765625 227.21875 100.238281 226.371094 97.300781 C 226.371094 97.300781 225.503906 91.230469 224.460938 86.203125 C 223.417969 81.175781 222.730469 77.03125 222.421875 73.816406 C 222.113281 70.601562 222.144531 68.371094 221.019531 70.28125 C 219.890625 72.191406 218.820312 72.570312 217.917969 72.539062 C 217.015625 72.511719 216.507812 72.332031 216.296875 72.222656 C 216.085938 72.109375 215.894531 71.949219 220.726562 77.042969 C 225.558594 82.132812 229.683594 86.296875 233.089844 89.546875 C 236.5 92.796875 239.230469 95.164062 241.511719 96.773438 C 243.789062 98.378906 246.507812 99.308594 249.457031 98.027344 C 252.410156 96.75 252.882812 96.085938 253.261719 95.449219 C 253.636719 94.808594 253.976562 94.144531 254.308594 93.425781 C 254.636719 92.707031 255.007812 91.8125 260.683594 76.28125 C 266.355469 60.75 266.453125 60.484375 266.535156 60.28125 C 266.617188 60.078125 266.574219 60.117188 266.1875 60.476562 C 265.804688 60.832031 264.683594 61.421875 263.308594 61.511719 C 261.933594 61.597656 261.492188 61.441406 260.855469 61.050781 C 260.21875 60.660156 259.953125 60.378906 259.894531 60.28125 C 259.832031 60.179688 259.882812 60.246094 259.984375 60.414062 C 260.085938 60.585938 262.785156 66.574219 265.082031 71.648438 C 267.382812 76.722656 269.289062 80.867188 270.785156 84.089844 C 272.28125 87.316406 273.390625 89.636719 274.144531 91.070312 C 274.898438 92.507812 275.777344 94.039062 276.632812 95.394531 C 277.484375 96.746094 278.3125 97.90625 279.15625 98.898438 C 280 99.886719 280.921875 100.722656 281.933594 101.328125 C 282.949219 101.933594 283.941406 102.257812 285.066406 102.136719 C 286.195312 102.011719 287.082031 101.710938 287.78125 101.300781 C 288.476562 100.890625 289.058594 100.417969 289.589844 99.894531 C 290.117188 99.371094 293.992188 95.160156 297.335938 91.535156 C 300.679688 87.914062 303.515625 84.882812 305.816406 82.425781 C 308.121094 79.96875 309.910156 78.105469 311.171875 76.824219 C 312.429688 75.539062 312.917969 75.046875 313.25 74.734375 C 313.585938 74.421875 313.757812 74.285156 313.582031 74.40625 C 313.40625 74.527344 312.148438 74.957031 309.621094 71.828125 C 307.09375 68.703125 303.628906 76.636719 300.746094 84.011719 C 297.859375 91.382812 295.632812 98.125 294.109375 104.261719 C 292.589844 110.402344 291.742188 115.9375 291.554688 120.714844 C 291.363281 125.496094 293.304688 121.289062 294.796875 120.648438 C 296.285156 120.003906 296.527344 120 296.3125 119.984375 C 296.09375 119.96875 295.589844 119.898438 295.003906 119.800781 C 294.417969 119.707031 291.785156 119.027344 289.089844 118.378906 C 286.390625 117.726562 283.757812 117.136719 281.1875 116.609375 C 278.617188 116.082031 276.109375 115.625 273.675781 115.238281 C 271.238281 114.851562 269.566406 114.613281 267.828125 114.398438 C 266.089844 114.1875 264.308594 114.003906 262.476562 113.847656 C 260.648438 113.6875 258.777344 113.550781 256.820312 113.4375 C 254.867188 113.324219 250.949219 113.269531 247.070312 113.367188 C 243.191406 113.464844 239.371094 113.742188 235.609375 114.191406 C 231.84375 114.636719 228.144531 115.261719 226.300781 115.710938 C 222.683594 116.492188 225.613281 122.3125 223.835938 122.644531 Z M 223.835938 122.644531 " fill-opacity="1" fill-rule="nonzero"/></g></g></g><g clip-path="url(#d38f246a2e)"><g clip-path="url(#7919ad8b50)"><g clip-path="url(#49316d8484)"><g clip-path="url(#6010978c5d)"><path fill="#000000" d="M 225.976562 118.5625 C 227.640625 118.402344 230.972656 118.050781 234.335938 117.847656 C 237.699219 117.644531 241.089844 117.589844 244.515625 117.6875 C 247.941406 117.78125 251.402344 118.015625 253.996094 118.300781 C 256.585938 118.582031 258.292969 118.804688 259.953125 119.054688 C 261.609375 119.304688 263.214844 119.574219 264.765625 119.867188 C 266.316406 120.15625 267.816406 120.464844 269.640625 120.863281 C 271.46875 121.261719 273.65625 121.769531 275.914062 122.328125 C 278.167969 122.882812 280.488281 123.492188 282.871094 124.160156 C 285.253906 124.828125 287.699219 125.554688 289.59375 126.082031 C 291.492188 126.613281 292.347656 126.78125 293.136719 126.898438 C 293.925781 127.019531 294.722656 127.078125 295.859375 126.960938 C 296.992188 126.847656 299.292969 125.625 300.285156 121.613281 C 301.277344 117.601562 301.621094 113.574219 302.503906 108.753906 C 303.386719 103.933594 304.71875 98.324219 306.550781 91.953125 C 308.382812 85.578125 310.75 78.457031 311.265625 71.902344 C 311.78125 65.347656 308.398438 64.632812 307.269531 65.136719 C 306.140625 65.640625 305.613281 66.074219 305.152344 66.53125 C 304.691406 66.988281 304.214844 67.511719 303.480469 68.351562 C 302.75 69.195312 301.445312 70.71875 299.679688 72.800781 C 297.914062 74.882812 295.679688 77.523438 292.988281 80.738281 C 290.296875 83.957031 287.109375 87.714844 285.257812 89.921875 C 283.402344 92.128906 283.226562 92.3125 283.171875 92.371094 C 283.117188 92.429688 283.242188 92.375 283.628906 92.296875 C 284.015625 92.222656 284.675781 92.085938 284.890625 92.144531 C 285.101562 92.203125 285.039062 92.136719 284.722656 91.769531 C 284.402344 91.402344 283.929688 90.746094 283.363281 89.824219 C 282.792969 88.898438 282.152344 87.726562 281.59375 86.613281 C 281.039062 85.5 280.386719 84.007812 279.378906 81.558594 C 278.367188 79.109375 277.050781 75.722656 275.410156 71.417969 C 273.773438 67.113281 271.8125 61.890625 270.589844 58.636719 C 269.363281 55.382812 269.082031 54.792969 268.730469 54.199219 C 268.378906 53.609375 267.90625 52.996094 267.1875 52.363281 C 266.46875 51.730469 265.363281 51.167969 264.355469 50.953125 C 263.34375 50.738281 261.253906 51.074219 260.070312 51.863281 C 258.882812 52.648438 258.261719 53.390625 257.824219 54.074219 C 257.390625 54.761719 257.039062 55.453125 253.890625 63.132812 C 250.742188 70.816406 245.214844 85.460938 245.015625 85.945312 C 244.816406 86.425781 244.632812 86.832031 244.507812 87.089844 C 244.382812 87.347656 244.339844 87.429688 244.484375 87.265625 C 244.628906 87.101562 249.300781 85.667969 249.183594 85.511719 C 249.070312 85.359375 247.34375 84.125 244.683594 81.953125 C 242.019531 79.777344 238.507812 76.734375 234.175781 72.847656 C 229.84375 68.957031 224.664062 64.222656 224.050781 63.761719 C 223.441406 63.300781 222.753906 62.933594 221.773438 62.683594 C 220.792969 62.433594 219.5 62.519531 218.300781 63.121094 C 217.105469 63.726562 215.550781 67.039062 215.878906 70.113281 C 216.207031 73.183594 216.980469 76.867188 218.160156 81.226562 C 219.339844 85.589844 220.945312 90.652344 222.546875 94.726562 C 224.148438 98.796875 229.183594 97.355469 228.375 94.574219 C 228.375 94.574219 227.546875 88.824219 226.550781 84.066406 C 225.558594 79.304688 224.902344 75.382812 224.609375 72.339844 C 224.3125 69.292969 224.34375 67.183594 223.273438 68.992188 C 222.203125 70.800781 221.183594 71.15625 220.324219 71.128906 C 219.46875 71.101562 218.984375 70.929688 218.785156 70.824219 C 218.585938 70.71875 218.402344 70.566406 223 75.390625 C 227.597656 80.214844 231.519531 84.15625 234.761719 87.234375 C 238.003906 90.3125 240.601562 92.554688 242.769531 94.078125 C 244.9375 95.601562 247.519531 96.480469 250.328125 95.273438 C 253.132812 94.0625 253.582031 93.4375 253.941406 92.832031 C 254.300781 92.226562 254.621094 91.597656 254.933594 90.917969 C 255.25 90.234375 255.601562 89.390625 260.992188 74.6875 C 266.378906 59.984375 266.46875 59.734375 266.546875 59.542969 C 266.628906 59.351562 266.585938 59.386719 266.21875 59.726562 C 265.855469 60.066406 264.789062 60.625 263.480469 60.707031 C 262.175781 60.789062 261.753906 60.640625 261.148438 60.269531 C 260.542969 59.898438 260.292969 59.632812 260.234375 59.539062 C 260.171875 59.445312 260.222656 59.503906 260.320312 59.667969 C 260.417969 59.828125 262.984375 65.496094 265.171875 70.304688 C 267.363281 75.109375 269.175781 79.03125 270.601562 82.085938 C 272.023438 85.140625 273.078125 87.335938 273.796875 88.695312 C 274.515625 90.054688 275.351562 91.507812 276.164062 92.789062 C 276.976562 94.070312 277.765625 95.167969 278.566406 96.105469 C 279.371094 97.042969 280.242188 97.835938 281.210938 98.410156 C 282.175781 98.984375 283.117188 99.289062 284.1875 99.175781 C 285.261719 99.058594 286.105469 98.773438 286.765625 98.386719 C 287.429688 97.996094 287.980469 97.550781 288.484375 97.054688 C 288.988281 96.558594 292.671875 92.574219 295.847656 89.148438 C 299.027344 85.71875 301.722656 82.851562 303.910156 80.523438 C 306.097656 78.199219 307.800781 76.4375 308.996094 75.222656 C 310.195312 74.007812 310.660156 73.539062 310.976562 73.246094 C 311.292969 72.953125 311.457031 72.824219 311.289062 72.9375 C 311.121094 73.050781 309.925781 73.457031 307.523438 70.496094 C 305.117188 67.535156 301.828125 75.042969 299.085938 82.023438 C 296.347656 89 294.230469 95.382812 292.789062 101.191406 C 291.34375 107.003906 290.542969 112.246094 290.363281 116.769531 C 290.1875 121.292969 292.03125 117.3125 293.445312 116.703125 C 294.859375 116.09375 295.09375 116.09375 294.886719 116.078125 C 294.679688 116.0625 294.199219 115.996094 293.644531 115.902344 C 293.089844 115.8125 290.585938 115.171875 288.019531 114.554688 C 285.453125 113.9375 282.949219 113.375 280.507812 112.875 C 278.0625 112.375 275.675781 111.941406 273.359375 111.574219 C 271.046875 111.207031 269.453125 110.980469 267.800781 110.777344 C 266.148438 110.578125 264.453125 110.402344 262.714844 110.253906 C 260.976562 110.101562 259.195312 109.972656 257.335938 109.863281 C 255.476562 109.753906 251.753906 109.699219 248.066406 109.792969 C 244.375 109.882812 240.742188 110.144531 237.164062 110.566406 C 233.585938 110.988281 230.066406 111.578125 228.316406 112 C 224.878906 112.738281 227.664062 118.25 225.976562 118.5625 Z M 225.976562 118.5625 " fill-opacity="1" fill-rule="nonzero"/></g></g></g></g><path stroke-linecap="butt" transform="matrix(2.436975, 0, 0, 2.436975, 63.356684, 54.133487)" fill="none" stroke-linejoin="miter" d="M 27.941422 31.881596 L 30.714456 34.863008 L 30.453182 49.48475 L 26.61261 52.466162 L 1.067039 53.10412 L 1.445326 10.554883 L 25.702158 11.777903 L 28.800582 15.724267 L 29.43854 30.019015 Z M 19.203962 27.77975 L 18.878571 19.877406 L 11.678301 18.756972 L 11.835386 26.712212 Z M 20.375689 35.722168 L 11.952399 34.329239 L 11.886679 44.419555 L 19.999005 43.130816 Z M 20.375689 35.722168 " stroke="#ffffff" stroke-width="2.666665" stroke-opacity="1" stroke-miterlimit="4"/><g fill="#000000" fill-opacity="1"><g transform="translate(63.356684, 183.293138)"><g><path d="M 68.109375 -51.46875 L 74.859375 -44.1875 L 74.21875 -8.578125 L 64.859375 -1.296875 L 2.59375 0.265625 L 3.515625 -103.453125 L 62.640625 -100.46875 L 70.1875 -90.84375 L 71.75 -56.015625 Z M 46.78125 -61.46875 L 46.015625 -80.703125 L 28.46875 -83.4375 L 28.859375 -64.078125 Z M 49.640625 -42.109375 L 29.109375 -45.484375 L 28.984375 -20.921875 L 48.734375 -24.046875 Z M 49.640625 -42.109375 "/></g></g></g><path stroke-linecap="butt" transform="matrix(2.224597, 0, 0, 2.224597, 66.071302, 164.548979)" fill="none" stroke-linejoin="miter" d="M 28.644134 10.332736 L 31.144587 13.054436 L 30.767061 49.107308 L 28.800413 52.896617 L 4.856473 53.052895 L 1.328799 50.9686 L 1.067164 13.158036 L 2.773934 10.489014 Z M 12.264766 19.29152 L 12.589614 43.937833 L 19.790706 44.41896 L 19.894307 19.928924 Z M 12.264766 19.29152 " stroke="#ffffff" stroke-width="2.666665" stroke-opacity="1" stroke-miterlimit="4"/><g fill="#000000" fill-opacity="1"><g transform="translate(66.071302, 282.452642)"><g><path d="M 63.703125 -94.90625 L 69.28125 -88.859375 L 68.453125 -8.65625 L 64.0625 -0.234375 L 10.796875 0.125 L 2.96875 -4.515625 L 2.375 -88.625 L 6.171875 -94.5625 Z M 27.28125 -74.984375 L 28 -20.171875 L 44.015625 -19.09375 L 44.25 -73.5625 Z M 27.28125 -74.984375 "/></g></g></g><path stroke-linecap="butt" transform="matrix(0.799574, 0, 0, 0.799574, 140.811881, 44.402896)" fill="none" stroke-linejoin="miter" d="M 93.605288 127.953162 L 97.293775 158.154785 L 16.51347 158.154785 L 17.637115 30.479401 L 51.63959 32.541045 L 49.895498 127.489047 Z M 93.605288 127.953162 " stroke="#ffffff" stroke-width="7.9505" stroke-opacity="1" stroke-miterlimit="4"/><g fill="#000000" fill-opacity="1"><g transform="translate(151.468705, 170.735613)"><g><path d="M 64.203125 -24.03125 L 67.125 0.125 L 2.546875 0.125 L 3.4375 -101.953125 L 30.640625 -100.296875 L 29.234375 -24.40625 Z M 64.203125 -24.03125 "/></g></g></g><path stroke-linecap="butt" transform="matrix(2.243356, 0, 0, 2.243356, 137.961867, 171.60327)" fill="none" stroke-linejoin="miter" d="M 28.643194 10.333574 L 31.143633 13.055152 L 30.765781 49.107791 L 28.799906 52.895015 L 4.85594 53.051728 L 1.328162 50.96919 L 1.066974 13.157886 L 2.773401 10.490287 Z M 12.26497 19.290578 L 12.590585 43.938011 L 19.790665 44.420338 L 19.89514 19.929618 Z M 12.26497 19.290578 " stroke="#ffffff" stroke-width="2.666665" stroke-opacity="1" stroke-miterlimit="4"/><g fill="#000000" fill-opacity="1"><g transform="translate(137.961867, 290.501143)"><g><path d="M 64.25 -95.71875 L 69.875 -89.609375 L 69.03125 -8.734375 L 64.609375 -0.234375 L 10.890625 0.125 L 2.984375 -4.546875 L 2.390625 -89.375 L 6.21875 -95.359375 Z M 27.515625 -75.609375 L 28.234375 -20.34375 L 44.390625 -19.265625 L 44.625 -74.171875 Z M 27.515625 -75.609375 "/></g></g></g><path stroke-linecap="butt" transform="matrix(2.243356, 0, 0, 2.243356, 210.247783, 55.166123)" fill="none" stroke-linejoin="miter" d="M 3.567074 30.124496 L 25.167314 30.552844 L 25.167314 38.65141 L 3.203152 38.444201 Z M 3.567074 30.124496 " stroke="#ffffff" stroke-width="2.666665" stroke-opacity="1" stroke-miterlimit="4"/><g fill="#000000" fill-opacity="1"><g transform="translate(210.247783, 174.063996)"><g><path d="M 8.015625 -51.328125 L 56.46875 -50.375 L 56.46875 -32.1875 L 7.171875 -32.65625 Z M 8.015625 -51.328125 "/></g></g></g><path stroke-linecap="butt" transform="matrix(2.243356, 0, 0, 2.243356, 143.673614, 228.704253)" fill="none" stroke-linejoin="miter" d="M 3.567052 30.12317 L 25.167292 30.553259 L 25.167292 38.651826 L 3.20313 38.442876 Z M 3.567052 30.12317 " stroke="#ffffff" stroke-width="2.666665" stroke-opacity="1" stroke-miterlimit="4"/><g fill="#000000" fill-opacity="1"><g transform="translate(143.673614, 347.602126)"><g><path d="M 8.015625 -51.328125 L 56.46875 -50.375 L 56.46875 -32.1875 L 7.171875 -32.65625 Z M 8.015625 -51.328125 "/></g></g></g><path stroke-linecap="butt" transform="matrix(2.925254, 0, 0, 2.925254, 271.463511, 167.966473)" fill="none" stroke-linejoin="miter" d="M 3.567186 30.123693 L 25.167872 30.553677 L 25.167872 38.652599 L 3.202634 38.444284 Z M 3.567186 30.123693 " stroke="#ffffff" stroke-width="2.666665" stroke-opacity="1" stroke-miterlimit="4"/><g fill="#000000" fill-opacity="1"><g transform="translate(271.463511, 323.004952)"><g><path d="M 10.453125 -66.921875 L 73.625 -65.671875 L 73.625 -41.96875 L 9.359375 -42.59375 Z M 10.453125 -66.921875 "/></g></g></g><path stroke-linecap="butt" transform="matrix(2.243356, 0, 0, 2.243356, 207.31171, 164.44893)" fill="none" stroke-linejoin="miter" d="M 16.430813 30.553891 L 30.71431 30.658366 L 30.935449 48.845751 L 28.957385 52.622528 L 4.908944 52.948143 L 1.327187 50.863863 L 1.06774 13.211013 L 2.772427 10.710574 L 27.940494 10.229989 L 31.196637 12.897588 L 30.453122 24.889596 L 20.480967 24.889596 L 19.739193 19.23923 L 12.263995 19.617082 L 12.58961 43.820496 L 19.841927 44.302823 L 20.050878 39.237518 L 16.430813 38.873597 Z M 16.430813 30.553891 " stroke="#ffffff" stroke-width="2.666665" stroke-opacity="1" stroke-miterlimit="4"/><g fill="#000000" fill-opacity="1"><g transform="translate(207.31171, 283.346803)"><g><path d="M 36.84375 -50.375 L 68.90625 -50.125 L 69.390625 -9.328125 L 64.96875 -0.84375 L 11 -0.125 L 2.984375 -4.78125 L 2.390625 -89.25 L 6.21875 -94.875 L 62.6875 -95.953125 L 69.984375 -89.96875 L 68.3125 -63.046875 L 45.9375 -63.046875 L 44.265625 -75.734375 L 27.515625 -74.890625 L 28.234375 -20.578125 L 44.5 -19.5 L 44.984375 -30.875 L 36.84375 -31.703125 Z M 36.84375 -50.375 "/></g></g></g><path stroke-linecap="butt" transform="matrix(2.414254, 0, 0, 2.414254, 275.387418, 125.286496)" fill="none" stroke-linejoin="miter" d="M 30.935772 13.588984 L 31.144493 17.221382 L 16.105231 53.377095 L 6.237081 51.24296 L 5.871414 48.898485 L 10.989131 33.639176 L 1.067587 12.038945 L 11.626621 10.124857 L 17.01778 20.358674 L 21.066003 10.073081 Z M 30.935772 13.588984 " stroke="#ffffff" stroke-width="2.666665" stroke-opacity="1" stroke-miterlimit="4"/><g fill="#000000" fill-opacity="1"><g transform="translate(275.387418, 253.241941)"><g><path d="M 74.671875 -95.140625 L 75.1875 -86.390625 L 38.875 0.90625 L 15.0625 -4.25 L 14.15625 -9.90625 L 26.515625 -46.734375 L 2.578125 -98.875 L 28.0625 -103.515625 L 41.078125 -78.796875 L 50.859375 -103.640625 Z M 74.671875 -95.140625 "/></g></g></g></svg>