<svg xmlns="http://www.w3.org/2000/svg" xmlns:xlink="http://www.w3.org/1999/xlink" width="500" zoomAndPan="magnify" viewBox="0 0 375 374.999991" height="500" preserveAspectRatio="xMidYMid meet" version="1.0"><defs><g/><clipPath id="63908b1c14"><path d="M 54.027344 65 L 336 65 L 336 328 L 54.027344 328 Z M 54.027344 65 " clip-rule="nonzero"/></clipPath><clipPath id="937254f4e8"><path d="M 213 46 L 314 46 L 314 127 L 213 127 Z M 213 46 " clip-rule="nonzero"/></clipPath><clipPath id="e55c4717a6"><path d="M 215.183594 41.5625 L 315.902344 51.9375 L 308.0625 128.03125 L 207.347656 117.660156 Z M 215.183594 41.5625 " clip-rule="nonzero"/></clipPath><clipPath id="78c3923198"><path d="M 215.183594 41.5625 L 315.902344 51.9375 L 308.0625 128.03125 L 207.347656 117.660156 Z M 215.183594 41.5625 " clip-rule="nonzero"/></clipPath><clipPath id="008ee8b814"><path d="M 215.183594 41.5625 L 315.902344 51.9375 L 308.0625 128.03125 L 207.347656 117.660156 Z M 215.183594 41.5625 " clip-rule="nonzero"/></clipPath><clipPath id="85898f09bf"><path d="M 213 51 L 314 51 L 314 132 L 213 132 Z M 213 51 " clip-rule="nonzero"/></clipPath><clipPath id="50aa364547"><path d="M 215.183594 46.042969 L 315.902344 56.417969 L 308.0625 132.515625 L 207.347656 122.140625 Z M 215.183594 46.042969 " clip-rule="nonzero"/></clipPath><clipPath id="bad52b5725"><path d="M 215.183594 46.042969 L 315.902344 56.417969 L 308.0625 132.515625 L 207.347656 122.140625 Z M 215.183594 46.042969 " clip-rule="nonzero"/></clipPath><clipPath id="7dd0bdd598"><path d="M 215.183594 46.042969 L 315.902344 56.417969 L 308.0625 132.515625 L 207.347656 122.140625 Z M 215.183594 46.042969 " clip-rule="nonzero"/></clipPath><clipPath id="3c207dcc13"><path d="M 215 50 L 312 50 L 312 128 L 215 128 Z M 215 50 " clip-rule="nonzero"/></clipPath><clipPath id="9260146f4f"><path d="M 217.714844 46.042969 L 313.210938 55.878906 L 305.757812 128.246094 L 210.261719 118.410156 Z M 217.714844 46.042969 " clip-rule="nonzero"/></clipPath><clipPath id="f5d190c257"><path d="M 217.714844 46.042969 L 313.210938 55.878906 L 305.757812 128.246094 L 210.261719 118.410156 Z M 217.714844 46.042969 " clip-rule="nonzero"/></clipPath></defs><g clip-path="url(#63908b1c14)"><path fill="#a98fdb" d="M 332.351562 229.0625 L 326.980469 245.980469 C 312.746094 279.246094 288.75 302.828125 254.992188 316.734375 C 221.042969 330.578125 184.90625 330.832031 146.582031 317.503906 C 110.421875 303.042969 84.296875 279.804688 68.203125 247.792969 C 63.066406 237.457031 59.382812 226.65625 57.152344 215.390625 L 55.027344 198.324219 C 54.378906 186.78125 55.4375 175.144531 58.203125 163.425781 C 67.789062 127.71875 88.332031 101.019531 119.832031 83.324219 C 151.332031 65.632812 186.605469 60.980469 225.65625 69.371094 C 264.269531 79.574219 293.613281 99.699219 313.683594 129.738281 C 333.753906 159.777344 339.980469 192.886719 332.351562 229.0625 " fill-opacity="1" fill-rule="nonzero"/></g><g clip-path="url(#937254f4e8)"><g clip-path="url(#e55c4717a6)"><g clip-path="url(#78c3923198)"><g clip-path="url(#008ee8b814)"><path fill="#000000" d="M 223.917969 117.824219 C 225.675781 117.65625 229.191406 117.285156 232.738281 117.074219 C 236.28125 116.863281 239.859375 116.804688 243.472656 116.90625 C 247.085938 117.007812 250.738281 117.257812 253.46875 117.554688 C 256.203125 117.851562 258.003906 118.089844 259.753906 118.351562 C 261.5 118.613281 263.191406 118.898438 264.828125 119.203125 C 266.464844 119.511719 268.046875 119.835938 269.972656 120.257812 C 271.898438 120.675781 274.207031 121.210938 276.585938 121.796875 C 278.964844 122.382812 281.414062 123.023438 283.925781 123.726562 C 286.4375 124.429688 289.019531 125.195312 291.019531 125.75 C 293.019531 126.308594 293.921875 126.484375 294.753906 126.609375 C 295.589844 126.734375 296.425781 126.800781 297.625 126.675781 C 298.820312 126.554688 301.246094 125.273438 302.292969 121.054688 C 303.335938 116.835938 303.699219 112.597656 304.625 107.53125 C 305.554688 102.464844 306.957031 96.566406 308.890625 89.867188 C 310.820312 83.164062 313.3125 75.675781 313.855469 68.785156 C 314.398438 61.894531 310.832031 61.140625 309.640625 61.667969 C 308.449219 62.199219 307.894531 62.652344 307.40625 63.132812 C 306.921875 63.613281 306.417969 64.164062 305.644531 65.050781 C 304.871094 65.933594 303.5 67.539062 301.636719 69.726562 C 299.777344 71.914062 297.421875 74.691406 294.582031 78.070312 C 291.746094 81.453125 288.386719 85.40625 286.429688 87.722656 C 284.476562 90.042969 284.292969 90.238281 284.234375 90.300781 C 284.175781 90.359375 284.308594 90.304688 284.714844 90.222656 C 285.121094 90.144531 285.820312 90 286.042969 90.0625 C 286.269531 90.125 286.203125 90.050781 285.867188 89.664062 C 285.53125 89.28125 285.03125 88.589844 284.433594 87.621094 C 283.832031 86.648438 283.15625 85.414062 282.570312 84.242188 C 281.980469 83.074219 281.292969 81.503906 280.226562 78.929688 C 279.160156 76.351562 277.769531 72.789062 276.042969 68.261719 C 274.3125 63.734375 272.246094 58.246094 270.953125 54.824219 C 269.660156 51.398438 269.363281 50.777344 268.992188 50.15625 C 268.621094 49.535156 268.121094 48.890625 267.363281 48.226562 C 266.605469 47.558594 265.4375 46.96875 264.375 46.742188 C 263.308594 46.515625 261.101562 46.867188 259.855469 47.695312 C 258.605469 48.523438 257.949219 49.300781 257.488281 50.023438 C 257.03125 50.742188 256.660156 51.46875 253.339844 59.546875 C 250.023438 67.625 244.199219 83.019531 243.988281 83.527344 C 243.777344 84.035156 243.585938 84.460938 243.457031 84.734375 C 243.324219 85.003906 243.277344 85.089844 243.429688 84.917969 C 243.582031 84.746094 248.507812 83.238281 248.386719 83.078125 C 248.265625 82.914062 246.445312 81.617188 243.636719 79.332031 C 240.828125 77.042969 237.121094 73.84375 232.550781 69.753906 C 227.980469 65.660156 222.515625 60.683594 221.871094 60.195312 C 221.226562 59.710938 220.503906 59.328125 219.46875 59.0625 C 218.4375 58.800781 217.070312 58.890625 215.808594 59.523438 C 214.546875 60.15625 212.90625 63.636719 213.257812 66.871094 C 213.605469 70.101562 214.417969 73.976562 215.664062 78.5625 C 216.910156 83.144531 218.605469 88.472656 220.296875 92.753906 C 221.988281 97.039062 227.292969 95.523438 226.441406 92.597656 C 226.441406 92.597656 225.566406 86.550781 224.515625 81.546875 C 223.46875 76.542969 222.773438 72.417969 222.460938 69.214844 C 222.148438 66.015625 222.183594 63.792969 221.054688 65.695312 C 219.925781 67.597656 218.851562 67.96875 217.945312 67.941406 C 217.039062 67.914062 216.53125 67.734375 216.320312 67.621094 C 216.109375 67.511719 215.917969 67.351562 220.765625 72.425781 C 225.617188 77.496094 229.757812 81.644531 233.175781 84.882812 C 236.59375 88.121094 239.335938 90.480469 241.625 92.082031 C 243.910156 93.683594 246.636719 94.609375 249.59375 93.339844 C 252.554688 92.066406 253.027344 91.410156 253.40625 90.773438 C 253.785156 90.136719 254.125 89.476562 254.453125 88.761719 C 254.78125 88.042969 255.15625 87.15625 260.835938 71.695312 C 266.511719 56.238281 266.609375 55.976562 266.691406 55.773438 C 266.773438 55.570312 266.726562 55.613281 266.34375 55.96875 C 265.960938 56.324219 264.835938 56.910156 263.457031 56.996094 C 262.078125 57.082031 261.632812 56.925781 260.996094 56.535156 C 260.355469 56.144531 260.09375 55.867188 260.03125 55.769531 C 259.96875 55.667969 260.019531 55.734375 260.121094 55.902344 C 260.222656 56.070312 262.933594 62.035156 265.242188 67.089844 C 267.554688 72.140625 269.46875 76.269531 270.972656 79.480469 C 272.472656 82.695312 273.585938 85 274.34375 86.433594 C 275.101562 87.863281 275.984375 89.386719 276.84375 90.734375 C 277.699219 92.082031 278.53125 93.242188 279.378906 94.226562 C 280.226562 95.210938 281.148438 96.046875 282.167969 96.648438 C 283.183594 97.253906 284.179688 97.574219 285.308594 97.453125 C 286.4375 97.332031 287.328125 97.03125 288.027344 96.625 C 288.726562 96.214844 289.308594 95.746094 289.839844 95.226562 C 290.371094 94.703125 294.25 90.515625 297.601562 86.914062 C 300.953125 83.308594 303.792969 80.292969 306.101562 77.847656 C 308.410156 75.402344 310.203125 73.550781 311.464844 72.273438 C 312.726562 71 313.214844 70.507812 313.550781 70.199219 C 313.882812 69.886719 314.054688 69.753906 313.878906 69.871094 C 313.703125 69.992188 312.441406 70.417969 309.90625 67.304688 C 307.371094 64.1875 303.902344 72.085938 301.015625 79.421875 C 298.125 86.757812 295.898438 93.46875 294.378906 99.578125 C 292.855469 105.6875 292.011719 111.199219 291.828125 115.957031 C 291.640625 120.714844 293.585938 116.53125 295.078125 115.890625 C 296.570312 115.25 296.8125 115.246094 296.597656 115.230469 C 296.378906 115.214844 295.871094 115.144531 295.285156 115.046875 C 294.699219 114.953125 292.058594 114.277344 289.351562 113.625 C 286.648438 112.976562 284.007812 112.386719 281.429688 111.859375 C 278.851562 111.335938 276.335938 110.875 273.890625 110.488281 C 271.449219 110.101562 269.773438 109.863281 268.027344 109.648438 C 266.285156 109.4375 264.496094 109.253906 262.664062 109.09375 C 260.828125 108.9375 258.949219 108.796875 256.992188 108.683594 C 255.03125 108.570312 251.101562 108.511719 247.214844 108.605469 C 243.324219 108.699219 239.492188 108.976562 235.71875 109.417969 C 231.945312 109.859375 228.234375 110.476562 226.386719 110.921875 C 222.761719 111.699219 225.699219 117.496094 223.917969 117.824219 Z M 223.917969 117.824219 " fill-opacity="1" fill-rule="nonzero"/></g></g></g></g><g clip-path="url(#85898f09bf)"><g clip-path="url(#50aa364547)"><g clip-path="url(#bad52b5725)"><g clip-path="url(#7dd0bdd598)"><path fill="#000000" d="M 223.917969 122.304688 C 225.675781 122.136719 229.191406 121.769531 232.738281 121.554688 C 236.28125 121.34375 239.859375 121.289062 243.472656 121.386719 C 247.085938 121.488281 250.738281 121.738281 253.46875 122.035156 C 256.203125 122.332031 258.003906 122.570312 259.753906 122.832031 C 261.5 123.09375 263.191406 123.382812 264.828125 123.6875 C 266.464844 123.992188 268.046875 124.320312 269.972656 124.738281 C 271.898438 125.160156 274.207031 125.691406 276.585938 126.277344 C 278.964844 126.867188 281.414062 127.507812 283.925781 128.207031 C 286.4375 128.910156 289.019531 129.675781 291.019531 130.234375 C 293.019531 130.792969 293.921875 130.96875 294.753906 131.09375 C 295.589844 131.21875 296.425781 131.28125 297.625 131.160156 C 298.820312 131.039062 301.246094 129.757812 302.292969 125.539062 C 303.335938 121.320312 303.699219 117.082031 304.625 112.015625 C 305.554688 106.945312 306.957031 101.050781 308.890625 94.347656 C 310.820312 87.644531 313.3125 80.160156 313.855469 73.265625 C 314.398438 66.375 310.832031 65.621094 309.640625 66.152344 C 308.449219 66.679688 307.894531 67.136719 307.40625 67.617188 C 306.921875 68.09375 306.417969 68.644531 305.644531 69.53125 C 304.871094 70.417969 303.5 72.019531 301.636719 74.210938 C 299.777344 76.398438 297.421875 79.171875 294.582031 82.554688 C 291.746094 85.933594 288.386719 89.886719 286.429688 92.207031 C 284.476562 94.527344 284.292969 94.71875 284.234375 94.78125 C 284.175781 94.84375 284.308594 94.785156 284.714844 94.707031 C 285.121094 94.625 285.820312 94.480469 286.042969 94.542969 C 286.269531 94.605469 286.203125 94.535156 285.867188 94.148438 C 285.53125 93.761719 285.03125 93.070312 284.433594 92.101562 C 283.832031 91.132812 283.15625 89.894531 282.570312 88.726562 C 281.980469 87.554688 281.292969 85.988281 280.226562 83.410156 C 279.160156 80.835938 277.769531 77.273438 276.042969 72.746094 C 274.3125 68.21875 272.246094 62.726562 270.953125 59.304688 C 269.660156 55.882812 269.363281 55.261719 268.992188 54.640625 C 268.621094 54.019531 268.121094 53.375 267.363281 52.707031 C 266.605469 52.042969 265.4375 51.449219 264.375 51.222656 C 263.308594 50.996094 261.101562 51.351562 259.855469 52.175781 C 258.605469 53.003906 257.949219 53.78125 257.488281 54.503906 C 257.03125 55.226562 256.660156 55.949219 253.339844 64.027344 C 250.023438 72.105469 244.199219 87.5 243.988281 88.011719 C 243.777344 88.519531 243.585938 88.945312 243.457031 89.214844 C 243.324219 89.488281 243.277344 89.570312 243.429688 89.398438 C 243.582031 89.230469 248.507812 87.71875 248.386719 87.558594 C 248.265625 87.398438 246.445312 86.097656 243.636719 83.8125 C 240.828125 81.527344 237.121094 78.324219 232.550781 74.234375 C 227.980469 70.144531 222.515625 65.164062 221.871094 64.679688 C 221.226562 64.191406 220.503906 63.808594 219.46875 63.546875 C 218.4375 63.28125 217.070312 63.371094 215.808594 64.003906 C 214.546875 64.636719 212.90625 68.121094 213.257812 71.351562 C 213.605469 74.585938 214.417969 78.457031 215.664062 83.042969 C 216.910156 87.628906 218.605469 92.953125 220.296875 97.238281 C 221.988281 101.519531 227.292969 100.003906 226.441406 97.082031 C 226.441406 97.082031 225.566406 91.035156 224.515625 86.027344 C 223.46875 81.023438 222.773438 76.898438 222.460938 73.699219 C 222.148438 70.496094 222.183594 68.277344 221.054688 70.175781 C 219.925781 72.078125 218.851562 72.453125 217.945312 72.421875 C 217.039062 72.394531 216.53125 72.214844 216.320312 72.105469 C 216.109375 71.992188 215.917969 71.832031 220.765625 76.90625 C 225.617188 81.980469 229.757812 86.128906 233.175781 89.367188 C 236.59375 92.605469 239.335938 94.960938 241.625 96.5625 C 243.910156 98.167969 246.636719 99.09375 249.59375 97.820312 C 252.554688 96.550781 253.027344 95.890625 253.40625 95.253906 C 253.785156 94.621094 254.125 93.960938 254.453125 93.242188 C 254.78125 92.527344 255.15625 91.636719 260.835938 76.179688 C 266.511719 60.722656 266.609375 60.457031 266.691406 60.257812 C 266.773438 60.054688 266.726562 60.09375 266.34375 60.449219 C 265.960938 60.804688 264.835938 61.390625 263.457031 61.476562 C 262.078125 61.5625 261.632812 61.40625 260.996094 61.019531 C 260.355469 60.628906 260.09375 60.351562 260.03125 60.25 C 259.96875 60.152344 260.019531 60.214844 260.121094 60.382812 C 260.222656 60.554688 262.933594 66.515625 265.242188 71.570312 C 267.554688 76.625 269.46875 80.75 270.972656 83.964844 C 272.472656 87.175781 273.585938 89.484375 274.34375 90.914062 C 275.101562 92.34375 275.984375 93.871094 276.84375 95.21875 C 277.699219 96.566406 278.53125 97.722656 279.378906 98.707031 C 280.226562 99.691406 281.148438 100.527344 282.167969 101.132812 C 283.183594 101.734375 284.179688 102.058594 285.308594 101.9375 C 286.4375 101.816406 287.328125 101.515625 288.027344 101.105469 C 288.726562 100.699219 289.308594 100.230469 289.839844 99.707031 C 290.371094 99.1875 294.25 95 297.601562 91.394531 C 300.953125 87.789062 303.792969 84.777344 306.101562 82.332031 C 308.410156 79.886719 310.203125 78.035156 311.464844 76.757812 C 312.726562 75.480469 313.214844 74.988281 313.550781 74.679688 C 313.882812 74.371094 314.054688 74.234375 313.878906 74.355469 C 313.703125 74.472656 312.441406 74.902344 309.90625 71.785156 C 307.371094 68.671875 303.902344 76.566406 301.015625 83.90625 C 298.125 91.242188 295.898438 97.953125 294.378906 104.0625 C 292.855469 110.171875 292.011719 115.679688 291.828125 120.4375 C 291.640625 125.195312 293.585938 121.011719 295.078125 120.371094 C 296.570312 119.730469 296.8125 119.730469 296.597656 119.714844 C 296.378906 119.695312 295.871094 119.625 295.285156 119.53125 C 294.699219 119.433594 292.058594 118.757812 289.351562 118.109375 C 286.648438 117.460938 284.007812 116.871094 281.429688 116.34375 C 278.851562 115.816406 276.335938 115.359375 273.890625 114.972656 C 271.449219 114.585938 269.773438 114.34375 268.027344 114.132812 C 266.285156 113.921875 264.496094 113.734375 262.664062 113.578125 C 260.828125 113.417969 258.949219 113.28125 256.992188 113.167969 C 255.03125 113.050781 251.101562 112.992188 247.214844 113.089844 C 243.324219 113.183594 239.492188 113.457031 235.71875 113.898438 C 231.945312 114.339844 228.234375 114.960938 226.386719 115.40625 C 222.761719 116.179688 225.699219 121.976562 223.917969 122.304688 Z M 223.917969 122.304688 " fill-opacity="1" fill-rule="nonzero"/></g></g></g></g><g clip-path="url(#3c207dcc13)"><g clip-path="url(#9260146f4f)"><g clip-path="url(#f5d190c257)"><path fill="#ffffff" d="M 225.921875 118.683594 C 227.582031 118.523438 230.90625 118.171875 234.257812 117.964844 C 237.613281 117.761719 240.996094 117.703125 244.414062 117.796875 C 247.832031 117.890625 251.28125 118.125 253.867188 118.40625 C 256.449219 118.6875 258.152344 118.914062 259.808594 119.160156 C 261.460938 119.410156 263.058594 119.679688 264.605469 119.972656 C 266.15625 120.261719 267.648438 120.570312 269.46875 120.96875 C 271.292969 121.367188 273.476562 121.875 275.722656 122.433594 C 277.972656 122.988281 280.285156 123.597656 282.664062 124.265625 C 285.039062 124.933594 287.476562 125.660156 289.367188 126.1875 C 291.257812 126.71875 292.117188 126.886719 292.902344 127.003906 C 293.691406 127.121094 294.484375 127.183594 295.617188 127.066406 C 296.746094 126.949219 299.042969 125.726562 300.035156 121.707031 C 301.023438 117.6875 301.371094 113.652344 302.25 108.824219 C 303.132812 103.996094 304.464844 98.375 306.296875 91.992188 C 308.128906 85.605469 310.488281 78.472656 311.007812 71.90625 C 311.523438 65.339844 308.152344 64.625 307.027344 65.128906 C 305.898438 65.632812 305.375 66.070312 304.914062 66.527344 C 304.453125 66.984375 303.976562 67.507812 303.246094 68.351562 C 302.515625 69.195312 301.214844 70.726562 299.453125 72.8125 C 297.691406 74.898438 295.460938 77.542969 292.773438 80.765625 C 290.089844 83.988281 286.910156 87.753906 285.058594 89.96875 C 283.207031 92.179688 283.035156 92.363281 282.980469 92.421875 C 282.925781 92.480469 283.046875 92.425781 283.433594 92.347656 C 283.820312 92.273438 284.476562 92.132812 284.691406 92.195312 C 284.90625 92.253906 284.839844 92.183594 284.523438 91.816406 C 284.207031 91.449219 283.734375 90.792969 283.167969 89.867188 C 282.601562 88.945312 281.960938 87.765625 281.40625 86.652344 C 280.855469 85.539062 280.207031 84.046875 279.199219 81.59375 C 278.191406 79.140625 276.878906 75.746094 275.246094 71.433594 C 273.613281 67.121094 271.664062 61.894531 270.445312 58.636719 C 269.222656 55.375 268.945312 54.785156 268.59375 54.191406 C 268.242188 53.601562 267.773438 52.988281 267.054688 52.351562 C 266.339844 51.71875 265.234375 51.15625 264.230469 50.941406 C 263.222656 50.726562 261.136719 51.066406 259.953125 51.851562 C 258.773438 52.640625 258.148438 53.382812 257.714844 54.070312 C 257.28125 54.757812 256.929688 55.449219 253.785156 63.148438 C 250.644531 70.84375 245.125 85.515625 244.925781 86 C 244.726562 86.484375 244.542969 86.890625 244.417969 87.148438 C 244.292969 87.40625 244.253906 87.488281 244.394531 87.324219 C 244.539062 87.160156 249.199219 85.722656 249.085938 85.566406 C 248.96875 85.414062 247.25 84.175781 244.59375 82 C 241.941406 79.828125 238.4375 76.78125 234.117188 72.886719 C 229.800781 68.992188 224.636719 64.25 224.027344 63.789062 C 223.417969 63.328125 222.734375 62.960938 221.753906 62.710938 C 220.777344 62.460938 219.484375 62.546875 218.292969 63.152344 C 217.101562 63.757812 215.546875 67.074219 215.875 70.152344 C 216.199219 73.234375 216.96875 76.921875 218.144531 81.289062 C 219.320312 85.65625 220.914062 90.726562 222.511719 94.808594 C 224.109375 98.886719 229.128906 97.4375 228.324219 94.652344 C 228.324219 94.652344 227.5 88.894531 226.511719 84.125 C 225.523438 79.359375 224.871094 75.429688 224.578125 72.382812 C 224.285156 69.332031 224.316406 67.214844 223.25 69.027344 C 222.179688 70.839844 221.164062 71.195312 220.308594 71.171875 C 219.449219 71.144531 218.96875 70.972656 218.769531 70.867188 C 218.570312 70.761719 218.390625 70.609375 222.972656 75.4375 C 227.554688 80.269531 231.464844 84.214844 234.699219 87.300781 C 237.929688 90.382812 240.519531 92.625 242.679688 94.148438 C 244.84375 95.675781 247.417969 96.554688 250.21875 95.339844 C 253.019531 94.128906 253.46875 93.5 253.824219 92.894531 C 254.183594 92.289062 254.503906 91.660156 254.816406 90.976562 C 255.128906 90.292969 255.484375 89.445312 260.863281 74.71875 C 266.246094 59.988281 266.335938 59.738281 266.414062 59.542969 C 266.492188 59.351562 266.449219 59.390625 266.085938 59.726562 C 265.722656 60.066406 264.65625 60.628906 263.355469 60.710938 C 262.050781 60.792969 261.628906 60.644531 261.027344 60.273438 C 260.421875 59.902344 260.171875 59.640625 260.113281 59.542969 C 260.054688 59.449219 260.105469 59.507812 260.203125 59.671875 C 260.296875 59.832031 262.855469 65.511719 265.039062 70.324219 C 267.21875 75.136719 269.023438 79.066406 270.445312 82.125 C 271.863281 85.183594 272.914062 87.382812 273.628906 88.746094 C 274.34375 90.105469 275.179688 91.558594 275.988281 92.84375 C 276.796875 94.125 277.585938 95.226562 278.382812 96.164062 C 279.183594 97.101562 280.054688 97.898438 281.019531 98.472656 C 281.980469 99.046875 282.921875 99.351562 283.988281 99.234375 C 285.058594 99.121094 285.902344 98.832031 286.5625 98.445312 C 287.222656 98.054688 287.773438 97.605469 288.277344 97.109375 C 288.777344 96.613281 292.453125 92.621094 295.621094 89.1875 C 298.792969 85.75 301.484375 82.875 303.667969 80.546875 C 305.851562 78.214844 307.550781 76.449219 308.742188 75.230469 C 309.9375 74.015625 310.402344 73.546875 310.71875 73.25 C 311.035156 72.957031 311.195312 72.824219 311.027344 72.941406 C 310.863281 73.054688 309.667969 73.460938 307.273438 70.496094 C 304.878906 67.53125 301.59375 75.054688 298.855469 82.046875 C 296.121094 89.039062 294.007812 95.433594 292.566406 101.253906 C 291.121094 107.074219 290.320312 112.324219 290.140625 116.859375 C 289.960938 121.390625 291.800781 117.402344 293.214844 116.792969 C 294.625 116.179688 294.855469 116.179688 294.652344 116.164062 C 294.445312 116.148438 293.96875 116.082031 293.414062 115.988281 C 292.859375 115.898438 290.359375 115.257812 287.804688 114.640625 C 285.246094 114.023438 282.746094 113.464844 280.308594 112.964844 C 277.871094 112.464844 275.492188 112.03125 273.183594 111.664062 C 270.875 111.296875 269.289062 111.066406 267.640625 110.867188 C 265.992188 110.667969 264.300781 110.492188 262.566406 110.34375 C 260.832031 110.191406 259.054688 110.0625 257.203125 109.957031 C 255.347656 109.847656 251.632812 109.792969 247.957031 109.886719 C 244.277344 109.980469 240.652344 110.246094 237.085938 110.667969 C 233.515625 111.089844 230.003906 111.683594 228.257812 112.109375 C 224.828125 112.851562 227.605469 118.371094 225.921875 118.683594 Z M 225.921875 118.683594 " fill-opacity="1" fill-rule="nonzero"/></g></g></g><path stroke-linecap="butt" transform="matrix(2.436975, 0, 0, 2.436975, 63.356684, 54.133487)" fill="none" stroke-linejoin="miter" d="M 27.941422 31.881596 L 30.714456 34.863008 L 30.453182 49.48475 L 26.61261 52.466162 L 1.067039 53.10412 L 1.445326 10.554883 L 25.702158 11.777903 L 28.800582 15.724267 L 29.43854 30.019015 Z M 19.203962 27.77975 L 18.878571 19.877406 L 11.678301 18.756972 L 11.835386 26.712212 Z M 20.375689 35.722168 L 11.952399 34.329239 L 11.886679 44.419555 L 19.999005 43.130816 Z M 20.375689 35.722168 " stroke="#000000" stroke-width="2.666665" stroke-opacity="1" stroke-miterlimit="4"/><g fill="#ffffff" fill-opacity="1"><g transform="translate(63.356684, 183.293138)"><g><path d="M 68.109375 -51.46875 L 74.859375 -44.1875 L 74.21875 -8.578125 L 64.859375 -1.296875 L 2.59375 0.265625 L 3.515625 -103.453125 L 62.640625 -100.46875 L 70.1875 -90.84375 L 71.75 -56.015625 Z M 46.78125 -61.46875 L 46.015625 -80.703125 L 28.46875 -83.4375 L 28.859375 -64.078125 Z M 49.640625 -42.109375 L 29.109375 -45.484375 L 28.984375 -20.921875 L 48.734375 -24.046875 Z M 49.640625 -42.109375 "/></g></g></g><path stroke-linecap="butt" transform="matrix(2.224597, 0, 0, 2.224597, 66.071302, 164.548979)" fill="none" stroke-linejoin="miter" d="M 28.644134 10.332736 L 31.144587 13.054436 L 30.767061 49.107308 L 28.800413 52.896617 L 4.856473 53.052895 L 1.328799 50.9686 L 1.067164 13.158036 L 2.773934 10.489014 Z M 12.264766 19.29152 L 12.589614 43.937833 L 19.790706 44.41896 L 19.894307 19.928924 Z M 12.264766 19.29152 " stroke="#000000" stroke-width="2.666665" stroke-opacity="1" stroke-miterlimit="4"/><g fill="#ffffff" fill-opacity="1"><g transform="translate(66.071302, 282.452642)"><g><path d="M 63.703125 -94.90625 L 69.28125 -88.859375 L 68.453125 -8.65625 L 64.0625 -0.234375 L 10.796875 0.125 L 2.96875 -4.515625 L 2.375 -88.625 L 6.171875 -94.5625 Z M 27.28125 -74.984375 L 28 -20.171875 L 44.015625 -19.09375 L 44.25 -73.5625 Z M 27.28125 -74.984375 "/></g></g></g><path stroke-linecap="butt" transform="matrix(0.799574, 0, 0, 0.799574, 140.811881, 44.402896)" fill="none" stroke-linejoin="miter" d="M 93.605288 127.953162 L 97.293775 158.154785 L 16.51347 158.154785 L 17.637115 30.479401 L 51.63959 32.541045 L 49.895498 127.489047 Z M 93.605288 127.953162 " stroke="#000000" stroke-width="7.9505" stroke-opacity="1" stroke-miterlimit="4"/><g fill="#ffffff" fill-opacity="1"><g transform="translate(151.468705, 170.735613)"><g><path d="M 64.203125 -24.03125 L 67.125 0.125 L 2.546875 0.125 L 3.4375 -101.953125 L 30.640625 -100.296875 L 29.234375 -24.40625 Z M 64.203125 -24.03125 "/></g></g></g><path stroke-linecap="butt" transform="matrix(2.243356, 0, 0, 2.243356, 137.961867, 171.60327)" fill="none" stroke-linejoin="miter" d="M 28.643194 10.333574 L 31.143633 13.055152 L 30.765781 49.107791 L 28.799906 52.895015 L 4.85594 53.051728 L 1.328162 50.96919 L 1.066974 13.157886 L 2.773401 10.490287 Z M 12.26497 19.290578 L 12.590585 43.938011 L 19.790665 44.420338 L 19.89514 19.929618 Z M 12.26497 19.290578 " stroke="#000000" stroke-width="2.666665" stroke-opacity="1" stroke-miterlimit="4"/><g fill="#ffffff" fill-opacity="1"><g transform="translate(137.961867, 290.501143)"><g><path d="M 64.25 -95.71875 L 69.875 -89.609375 L 69.03125 -8.734375 L 64.609375 -0.234375 L 10.890625 0.125 L 2.984375 -4.546875 L 2.390625 -89.375 L 6.21875 -95.359375 Z M 27.515625 -75.609375 L 28.234375 -20.34375 L 44.390625 -19.265625 L 44.625 -74.171875 Z M 27.515625 -75.609375 "/></g></g></g><path stroke-linecap="butt" transform="matrix(2.243356, 0, 0, 2.243356, 210.247783, 55.166123)" fill="none" stroke-linejoin="miter" d="M 3.567074 30.124496 L 25.167314 30.552844 L 25.167314 38.65141 L 3.203152 38.444201 Z M 3.567074 30.124496 " stroke="#000000" stroke-width="2.666665" stroke-opacity="1" stroke-miterlimit="4"/><g fill="#ffffff" fill-opacity="1"><g transform="translate(210.247783, 174.063996)"><g><path d="M 8.015625 -51.328125 L 56.46875 -50.375 L 56.46875 -32.1875 L 7.171875 -32.65625 Z M 8.015625 -51.328125 "/></g></g></g><path stroke-linecap="butt" transform="matrix(2.243356, 0, 0, 2.243356, 143.673614, 228.704253)" fill="none" stroke-linejoin="miter" d="M 3.567052 30.12317 L 25.167292 30.553259 L 25.167292 38.651826 L 3.20313 38.442876 Z M 3.567052 30.12317 " stroke="#000000" stroke-width="2.666665" stroke-opacity="1" stroke-miterlimit="4"/><g fill="#ffffff" fill-opacity="1"><g transform="translate(143.673614, 347.602126)"><g><path d="M 8.015625 -51.328125 L 56.46875 -50.375 L 56.46875 -32.1875 L 7.171875 -32.65625 Z M 8.015625 -51.328125 "/></g></g></g><path stroke-linecap="butt" transform="matrix(2.925254, 0, 0, 2.925254, 271.463511, 167.966473)" fill="none" stroke-linejoin="miter" d="M 3.567186 30.123693 L 25.167872 30.553677 L 25.167872 38.652599 L 3.202634 38.444284 Z M 3.567186 30.123693 " stroke="#000000" stroke-width="2.666665" stroke-opacity="1" stroke-miterlimit="4"/><g fill="#ffffff" fill-opacity="1"><g transform="translate(271.463511, 323.004952)"><g><path d="M 10.453125 -66.921875 L 73.625 -65.671875 L 73.625 -41.96875 L 9.359375 -42.59375 Z M 10.453125 -66.921875 "/></g></g></g><path stroke-linecap="butt" transform="matrix(2.243356, 0, 0, 2.243356, 207.31171, 164.44893)" fill="none" stroke-linejoin="miter" d="M 16.430813 30.553891 L 30.71431 30.658366 L 30.935449 48.845751 L 28.957385 52.622528 L 4.908944 52.948143 L 1.327187 50.863863 L 1.06774 13.211013 L 2.772427 10.710574 L 27.940494 10.229989 L 31.196637 12.897588 L 30.453122 24.889596 L 20.480967 24.889596 L 19.739193 19.23923 L 12.263995 19.617082 L 12.58961 43.820496 L 19.841927 44.302823 L 20.050878 39.237518 L 16.430813 38.873597 Z M 16.430813 30.553891 " stroke="#000000" stroke-width="2.666665" stroke-opacity="1" stroke-miterlimit="4"/><g fill="#ffffff" fill-opacity="1"><g transform="translate(207.31171, 283.346803)"><g><path d="M 36.84375 -50.375 L 68.90625 -50.125 L 69.390625 -9.328125 L 64.96875 -0.84375 L 11 -0.125 L 2.984375 -4.78125 L 2.390625 -89.25 L 6.21875 -94.875 L 62.6875 -95.953125 L 69.984375 -89.96875 L 68.3125 -63.046875 L 45.9375 -63.046875 L 44.265625 -75.734375 L 27.515625 -74.890625 L 28.234375 -20.578125 L 44.5 -19.5 L 44.984375 -30.875 L 36.84375 -31.703125 Z M 36.84375 -50.375 "/></g></g></g><path stroke-linecap="butt" transform="matrix(2.414254, 0, 0, 2.414254, 275.387418, 125.286496)" fill="none" stroke-linejoin="miter" d="M 30.935772 13.588984 L 31.144493 17.221382 L 16.105231 53.377095 L 6.237081 51.24296 L 5.871414 48.898485 L 10.989131 33.639176 L 1.067587 12.038945 L 11.626621 10.124857 L 17.01778 20.358674 L 21.066003 10.073081 Z M 30.935772 13.588984 " stroke="#000000" stroke-width="2.666665" stroke-opacity="1" stroke-miterlimit="4"/><g fill="#ffffff" fill-opacity="1"><g transform="translate(275.387418, 253.241941)"><g><path d="M 74.671875 -95.140625 L 75.1875 -86.390625 L 38.875 0.90625 L 15.0625 -4.25 L 14.15625 -9.90625 L 26.515625 -46.734375 L 2.578125 -98.875 L 28.0625 -103.515625 L 41.078125 -78.796875 L 50.859375 -103.640625 Z M 74.671875 -95.140625 "/></g></g></g></svg>